# xmcd
#
# Track frame offsets: 
#        150
#        12655
#        25820
#        40238
#        54028
#        65903
#        79490
#        96420
#        109193
#        122235
#
# Disc length: 1797 seconds
#
# Revision: 3
# Processed by: cddbd v1.5.2PL0 Copyright (c) Steve Scherf et al.
# Submitted via: ExactAudioCopy v0.99pb3
#
DISCID=8a07030a
DTITLE=Freddy Fender - The Freddy Fender Collection
DYEAR=1991
DGENRE=
TTITLE0=Wasted Days And Wasted Nights
TTITLE1=It's All In The Game
TTITLE2=Since I Met You Baby
TTITLE3=I Can't Stop Loving You
TTITLE4=Before The Next Teardrop Falls
TTITLE5=Tell It Like It Is
TTITLE6=Secret Love
TTITLE7=You'll Lose A Good Thing
TTITLE8=Pledging My Love
TTITLE9=Vaya Con Dios
EXTD=
EXTT0=
EXTT1=
EXTT2=
EXTT3=
EXTT4=
EXTT5=
EXTT6=
EXTT7=
EXTT8=
EXTT9=
PLAYORDER=
